<svg preserveAspectRatio="none" overflow="visible" style="display: block;" width="72.02" height="72" viewBox="0 0 72.02 72" fill="none" xmlns="http://www.w3.org/2000/svg">
<g id="Container" opacity="0.04">
<path id="Icon" d="M17.025 35.1L19.65 26.55L12.75 21H21.3L24 12.6L26.7 21H35.25L28.275 26.55L30.9 35.1L24 29.775L17.025 35.1V35.1M6 63V39.825C4.1 37.725 2.625 35.325 1.575 32.625C0.525 29.925 0 27.05 0 24C0 17.3 2.325 11.625 6.975 6.975C11.625 2.325 17.3 0 24 0C30.7 0 36.375 2.325 41.025 6.975C45.675 11.625 48 17.3 48 24C48 27.05 47.475 29.925 46.425 32.625C45.375 35.325 43.9 37.725 42 39.825V63L24 57L6 63V63M24 42C29 42 33.25 40.25 36.75 36.75C40.25 33.25 42 29 42 24C42 19 40.25 14.75 36.75 11.25C33.25 7.75 29 6 24 6C19 6 14.75 7.75 11.25 11.25C7.75 14.75 6 19 6 24C6 29 7.75 33.25 11.25 36.75C14.75 40.25 19 42 24 42V42M12 54.075L24 51L36 54.075V44.775C34.25 45.775 32.3625 46.5625 30.3375 47.1375C28.3125 47.7125 26.2 48 24 48C21.8 48 19.6875 47.7125 17.6625 47.1375C15.6375 46.5625 13.75 45.775 12 44.775V54.075V54.075M24 49.425V49.425V49.425V49.425V49.425V49.425V49.425V49.425V49.425V49.425" fill="#1E4ED8"/>
</g>
</svg>
